<svg class="icon-svg" height="24" viewBox="0 0 24 24" width="24" xmlns="http://www.w3.org/2000/svg"><circle cx="12" cy="12" fill="#de3073" r="12"></circle><path d="m18.958 9.116a5.121 5.121 0 0 0 -.336-1.708 3.557 3.557 0 0 0 -2.044-2.044 5.12 5.12 0 0 0 -1.694-.322c-.742-.028-.994-.042-2.884-.042s-2.142.014-2.884.042a5.213 5.213 0 0 0 -1.708.322 3.665 3.665 0 0 0 -2.044 2.044 5.213 5.213 0 0 0 -.322 1.708c-.028.742-.042.984-.042 2.884s.014 2.142.042 2.884a5.12 5.12 0 0 0 .322 1.694 3.44 3.44 0 0 0 .812 1.246 3.4 3.4 0 0 0 1.232.8 5.175 5.175 0 0 0 1.708.336c.742.028.98.042 2.884.042s2.142-.014 2.884-.042a5.082 5.082 0 0 0 1.694-.336 3.456 3.456 0 0 0 2.044-2.044 5.006 5.006 0 0 0 .336-1.694c.028-.744.042-.986.042-2.886s-.014-2.142-.042-2.884zm-1.258 5.712a3.946 3.946 0 0 1 -.252 1.3 2.189 2.189 0 0 1 -.518.8 2.165 2.165 0 0 1 -.8.532 4.641 4.641 0 0 1 -1.3.238c-.742.028-.966.042-2.828.042s-2.1-.014-2.828-.042a3.837 3.837 0 0 1 -1.3-.252 2.258 2.258 0 0 1 -1.334-1.316 3.91 3.91 0 0 1 -.238-1.3c-.028-.742-.042-.966-.042-2.828s.014-2.086.042-2.828a3.787 3.787 0 0 1 .238-1.3 2.445 2.445 0 0 1 1.33-1.334 3.856 3.856 0 0 1 1.3-.238c.742-.028.952-.042 2.828-.042s2.086.014 2.828.042a3.787 3.787 0 0 1 1.3.238 2.445 2.445 0 0 1 1.33 1.33 4.641 4.641 0 0 1 .238 1.3c.027.742.042.952.042 2.828s-.011 2.088-.036 2.83zm-5.7-6.428a3.6 3.6 0 1 0 3.6 3.6 3.6 3.6 0 0 0 -3.6-3.6zm.181 5.929a2.338 2.338 0 0 1 -.362-4.662 2.43 2.43 0 0 1 .362 0 2.338 2.338 0 0 1 0 4.662zm3.557-6.909a.84.84 0 1 1 -.84.84.84.84 0 0 1 .84-.838z" fill="#fff"></path></svg>