<svg class="icon-svg" height="24" viewBox="0 0 24 24" width="24" xmlns="http://www.w3.org/2000/svg"><circle cx="12" cy="12" fill="#73b4ff" r="12"></circle><path d="m19.5 7.425a6.228 6.228 0 0 1 -1.77.465 2.979 2.979 0 0 0 1.35-1.665 6.234 6.234 0 0 1 -1.95.735 3.088 3.088 0 0 0 -5.325 2.07 3.021 3.021 0 0 0 .075.69 8.789 8.789 0 0 1 -6.33-3.165 2.985 2.985 0 0 0 -.42 1.53 3.016 3.016 0 0 0 1.37 2.52 3.082 3.082 0 0 1 -1.394-.39v.045a3.049 3.049 0 0 0 2.474 2.97 3.418 3.418 0 0 1 -1.4.06 3.076 3.076 0 0 0 2.881 2.1 6.233 6.233 0 0 1 -4.561 1.245 8.811 8.811 0 0 0 4.725 1.365 8.622 8.622 0 0 0 8.745-8.625v-.39a6.231 6.231 0 0 0 1.53-1.56z" fill="#fff"></path></svg>