<svg class="icon-svg" xmlns="http://www.w3.org/2000/svg" viewBox="0 0 1000 1000"><path d="M509 0A489 489 0 0 0 18 487a482 482 0 0 0 71 252L0 1000l272-86a493 493 0 0 0 237 60c271 0 491-218 491-487S780 0 509 0zm0 893a409 409 0 0 1-225-67l-157 49 51-150a401 401 0 0 1-78-238 408 408 0 0 1 818 0c0 224-184 406-409 406zm230-295a2222 2222 0 0 0-84-44c-11-4-20-7-28 5a748 748 0 0 1-42 48c-7 8-15 8-27 2-12-7-52-22-99-66a372 372 0 0 1-66-88c-7-13 0-20 7-26l19-21c7-7 9-12 13-20 5-8 3-15 0-22l-35-94c-9-25-20-21-27-21l-24-2c-8 0-22 2-34 14s-46 41-48 102 40 122 46 131c6 8 82 141 207 195 126 55 126 38 149 37 24-1 76-27 87-56 12-29 13-54 10-59s-11-9-24-15z"></path></svg>